<svg id="Layer_2" data-name="Layer 2" xmlns="http://www.w3.org/2000/svg" viewBox="0 0 100 100"><defs><style>.cls-1,.cls-5{fill:#fff;}.cls-2,.cls-3,.cls-4{fill:none;}.cls-2,.cls-4{stroke:#212121;}.cls-2,.cls-3,.cls-4,.cls-5{stroke-miterlimit:10;}.cls-2{stroke-width:6px;}.cls-3{stroke:#f18318;stroke-width:8px;}.cls-4{stroke-width:4px;}.cls-5{stroke:#f08316;stroke-width:2px;}</style></defs><circle class="cls-1" cx="49.96" cy="51.25" r="48.32"/><path class="cls-2" d="M26.36,66.27S29,81.15,40.8,81.15,53.64,67.73,52.32,57.38,52.2,16.33,71.43,19c11.79,1.65,5.8,16.58-10.36,19.93a.5.5,0,0,0,0,1c5,1.49,13.59,7.54,7.2,32.05-2.48,10.5,8.46,8.75,8.46,8.75"/><path class="cls-3" d="M26.36,66.27S29,81.15,40.8,81.15,53.64,67.73,52.32,57.38,52.2,16.33,71.43,19c11.79,1.65,5.8,16.58-10.36,19.93-.51.11-3.16.94-3.16.94"/><path class="cls-4" d="M26.36,66.27S29,81.15,40.8,81.15,53.64,67.73,52.32,57.38,52.2,16.33,71.43,19c11.79,1.65,5.8,16.58-10.36,19.93-.51.11-3.16.94-3.16.94"/><polygon class="cls-5" points="52.74 41.64 61.25 43.45 58.56 35.18 52.74 41.64"/><polygon class="cls-5" points="22.39 68.79 30.79 66.54 24.64 60.39 22.39 68.79"/></svg>